<?xml version="1.0" encoding="utf-8"?>
<!-- Generator: Adobe Illustrator 20.1.0, SVG Export Plug-In . SVG Version: 6.00 Build 0)  -->
<svg version="1.1" id="Слой_1" xmlns="http://www.w3.org/2000/svg" xmlns:xlink="http://www.w3.org/1999/xlink" x="0px" y="0px"
	 width="280px" height="96px" viewBox="0 0 280 96" style="enable-background:new 0 0 280 96;" xml:space="preserve">
<style type="text/css">
	.st0{fill:#FFFFFF;}
</style>
<g>
	<g>
		<g>
			<g>
				<path class="st0" d="M184.7,56.5v-26h11.5v4.2h-6.7v4.7l4.7-0.1v4.7l-4.7,0.1v12.5H184.7z"/>
			</g>
			<g>
				<path class="st0" d="M199.4,34c0-1.1,0.3-2,1-2.6c0.7-0.6,1.6-0.9,2.8-0.9h5.3c1.2,0,2.2,0.3,2.9,0.9c0.7,0.6,1,1.5,1,2.6v18.9
					c0,1.1-0.3,2-1,2.6c-0.7,0.6-1.6,0.9-2.9,0.9h-5.3c-1.2,0-2.1-0.3-2.8-0.9c-0.7-0.6-1-1.5-1-2.6V34z M207.6,34.6h-3.5v17.8h3.5
					V34.6z"/>
			</g>
			<g>
				<path class="st0" d="M229.8,43.3l-3.5,1.6l5.4,11.5h-5l-4.5-9.6l-0.7,0.3v9.3h-4.7v-26h9.1c1.2,0,2.2,0.3,2.8,0.9
					c0.7,0.6,1,1.5,1,2.6V43.3z M225.1,41v-6.4h-3.5V41H225.1z"/>
			</g>
			<g>
				<path class="st0" d="M245.6,56.5h-11.5v-26h11.5v4.2h-6.7l0,4.6l5.1,0v4.7h-5.1l0,8.4h6.7V56.5z"/>
			</g>
			<g>
				<path class="st0" d="M249.5,34c0-1.1,0.3-2,1-2.6c0.7-0.6,1.6-0.9,2.8-0.9h5.3c1.2,0,2.2,0.3,2.9,0.9c0.7,0.6,1,1.5,1,2.6v0.6
					l-4.8,2.3v-2.3h-3.5v5.7h8.3v12.6c0,1.1-0.3,2-1,2.6c-0.7,0.6-1.6,0.9-2.9,0.9h-5.3c-1.2,0-2.2-0.3-2.8-0.9
					c-0.7-0.6-1-1.5-1-2.6v-2.4l4.7-2.2v4.1h3.5v-8.2h-8.2V34z"/>
			</g>
			<g>
				<path class="st0" d="M270.1,56.5V34.6h-4.7v-4.2h14.1v4.2h-4.7v21.9H270.1z"/>
			</g>
			<g>
				<path class="st0" d="M92.9,34c0-1.1,0.3-2,1-2.6c0.7-0.6,1.6-0.9,2.8-0.9h5.3c1.2,0,2.2,0.3,2.9,0.9c0.7,0.6,1,1.5,1,2.6v0.6
					l-4.8,2.3v-2.3h-3.5v5.7h8.3v12.6c0,1.1-0.3,2-1,2.6c-0.7,0.6-1.6,0.9-2.9,0.9h-5.3c-1.2,0-2.1-0.3-2.8-0.9
					c-0.7-0.6-1-1.5-1-2.6v-2.4l4.7-2.2v4.1h3.5v-8.2h-8.2V34z"/>
			</g>
			<g>
				<path class="st0" d="M113.8,56.5V34.6h-4.7v-4.2h14.1v4.2h-4.7v21.9H113.8z"/>
			</g>
			<g>
				<path class="st0" d="M126.2,34c0-1.1,0.3-2,1-2.6c0.7-0.6,1.6-0.9,2.8-0.9h5.3c1.2,0,2.2,0.3,2.9,0.9c0.7,0.6,1,1.5,1,2.6v18.9
					c0,1.1-0.3,2-1,2.6c-0.7,0.6-1.6,0.9-2.9,0.9H130c-1.2,0-2.1-0.3-2.8-0.9c-0.7-0.6-1-1.5-1-2.6V34z M134.4,34.6h-3.5v17.8h3.5
					V34.6z"/>
			</g>
			<g>
				<path class="st0" d="M148.3,56.5h-4.7v-26h4.7l0,2.1c0.1-0.7,0.4-1.2,0.9-1.5c0.5-0.3,1.1-0.5,1.9-0.5h1.6
					c1.2,0,2.2,0.3,2.8,0.9c0.7,0.6,1,1.5,1,2.6v22.5h-4.7V34.6h-3.5V56.5z"/>
			</g>
			<g>
				<path class="st0" d="M173.3,56.5h-11.5v-26h11.5v4.2h-6.7l0,4.6l5.1,0v4.7h-5.1l0,8.4h6.7V56.5z"/>
			</g>
		</g>
		<g>
			<g>
				<path class="st0" d="M117.3,71h-3.6v-3.1c0-0.3,0-0.5,0.1-0.6c0.1-0.2,0.3-0.3,0.5-0.4l1.6-0.8v-1.7h-1V65l-1.3,0.6v-1.5
					c0-0.3,0.1-0.6,0.3-0.8c0.2-0.2,0.4-0.3,0.8-0.3h1.5c0.3,0,0.6,0.1,0.8,0.3c0.2,0.2,0.3,0.5,0.3,0.8v2c0,0.3-0.1,0.5-0.2,0.6
					c-0.1,0.2-0.3,0.3-0.5,0.4L115,68v1.8h2.3V71z"/>
				<path class="st0" d="M122.4,69.9c0,0.3-0.1,0.6-0.3,0.8c-0.2,0.2-0.5,0.3-0.8,0.3h-1.5c-0.3,0-0.6-0.1-0.8-0.3
					c-0.2-0.2-0.3-0.5-0.3-0.8v-5.8c0-0.3,0.1-0.6,0.3-0.8c0.2-0.2,0.4-0.3,0.8-0.3h1.5c0.3,0,0.6,0.1,0.8,0.3
					c0.2,0.2,0.3,0.5,0.3,0.8V69.9z M121.1,64.3h-1v5.4h1V64.3z"/>
				<path class="st0" d="M124.7,64.7l-1,0.5v-1.4l1.4-0.7h0.9V71h-1.3V64.7z"/>
				<path class="st0" d="M131.1,66.8v3.1c0,0.3-0.1,0.6-0.3,0.8c-0.2,0.2-0.4,0.3-0.8,0.3h-1.5c-0.3,0-0.6-0.1-0.8-0.3
					c-0.2-0.2-0.3-0.5-0.3-0.8v-0.7l1.3-0.7v1.2h1v-2.6l-0.9,0v-1.4l0.9,0v-1.4h-1v0.5l-1.3,0.7v-1.4c0-0.3,0.1-0.6,0.3-0.8
					c0.2-0.2,0.4-0.3,0.8-0.3h1.5c0.3,0,0.6,0.1,0.8,0.3c0.2,0.2,0.3,0.5,0.3,0.8v1.7c0,0.3,0,0.5-0.1,0.6c-0.1,0.2-0.2,0.3-0.4,0.3
					H131.1z"/>
			</g>
			<g>
				<path class="st0" d="M96,71h-3.1v-7.9H96v1.3h-1.8l0,1.4l1.4,0v1.4h-1.4l0,2.6H96V71z"/>
				<path class="st0" d="M97.4,64.2c0-0.3,0.1-0.6,0.3-0.8c0.2-0.2,0.4-0.3,0.8-0.3h1.5c0.3,0,0.6,0.1,0.8,0.3
					c0.2,0.2,0.3,0.5,0.3,0.8v0.2L99.6,65v-0.7h-1v1.8h2.3v3.8c0,0.3-0.1,0.6-0.3,0.8c-0.2,0.2-0.4,0.3-0.8,0.3h-1.5
					c-0.3,0-0.6-0.1-0.8-0.3c-0.2-0.2-0.3-0.5-0.3-0.8v-0.7l1.3-0.7v1.3h1v-2.5h-2.3V64.2z"/>
				<path class="st0" d="M103.4,71v-6.7h-1.3v-1.3h3.9v1.3h-1.3V71H103.4z"/>
				<path class="st0" d="M106.5,69.7h1.3V71h-1.3V69.7z"/>
			</g>
		</g>
	</g>
	<g>
		<path class="st0" d="M40.1,46c1.4,1.3,2.9,2.7,4.5,4c0.1-0.1,0.3-0.3,0.4-0.4c3-3.1,9.8-9.3,13.1-13.7c-0.9-0.8-1.8-1.6-2.9-2.3
			c-0.8-0.5-1.6-0.9-2.4-1.4C50.2,35.5,45.8,40.6,40.1,46z"/>
		<path class="st0" d="M29.8,54.7C19.3,62.7,8.7,75,8.3,76.5c-0.3,1.5,12.3-0.6,12.3-0.6s2.2-0.6,3.7-5.1
			c2.3-6.3,7.9-10.8,13.1-14.9c-1.6-1.2-3.1-2.4-4.4-3.6C32,53.1,30.9,53.9,29.8,54.7z"/>
		<path class="st0" d="M63.8,23.7c1,0.9,2.1,1.8,3.2,2.7c0.9-3.8-5.1-5.9-5.1-5.9l-0.7,1c0.3,0.3,0.6,0.5,0.9,0.8
			C62.7,22.8,63.2,23.2,63.8,23.7z"/>
		<path class="st0" d="M76.4,33.2c-3,0-6.3-2.1-9.5-4.6c-2.1-1.6-4.1-3.4-5.9-4.9c-1.3-1.1-2.6-2.1-3.7-2.8
			c-0.7-0.5-1.5-0.8-2.2-1.1L51.4,24l2.4,1.8l-2.1,2.8c0,0,0.3,1.3,0.9,1.6c0.5,0.2,0.9,0.4,1.3,0.6c2.6,1.3,5,3.2,6.9,5.5
			c3.3,3.9,4.1,7.8,4.1,7.8c8.1-0.8,12.2-11,12.2-11C77,33.1,76.7,33.2,76.4,33.2z"/>
		<path class="st0" d="M53.3,19.2c-0.8-0.2-1.7-0.2-2.5-0.2c-2.8,0-5,0.8-5,0.8l4.2,3.2L53.3,19.2z"/>
		<path class="st0" d="M47.9,54.7c-1.6-1.2-3.1-2.4-4.5-3.6c-1.6-1.3-3.1-2.6-4.5-4c-6.3-5.8-11.2-11.4-14.1-14.9
			c-0.8,0.4-1.6,0.9-2.4,1.4c-1,0.7-2,1.4-2.9,2.3c3.3,4.3,10.1,10.6,13.1,13.7c0.5,0.5,1.1,1.1,1.7,1.6c1.4,1.2,2.9,2.4,4.5,3.6
			c5.6,4.4,12.1,9.2,14.5,16c1.5,4.5,3.7,5.1,3.7,5.1S64,77,67.5,77c1.2,0,2-0.1,1.9-0.5C69.1,75,58.5,62.7,47.9,54.7z"/>
		<path class="st0" d="M13.9,23.7c0.6-0.5,1.1-1,1.7-1.4c0.3-0.2,0.6-0.5,0.9-0.8l-0.7-1c0,0-5.9,2.1-5.1,5.9
			C11.8,25.5,12.9,24.6,13.9,23.7z"/>
		<path class="st0" d="M31.9,19.8c0,0-2.2-0.8-5-0.8c-0.8,0-1.6,0.1-2.5,0.2l3.3,3.7L31.9,19.8z"/>
		<path class="st0" d="M16.8,36.3c2.1-2.5,4.7-4.5,7.7-5.8c0.2-0.1,0.4-0.2,0.6-0.3c0.1,0,0.1-0.1,0.2-0.1c0.5-0.4,0.7-1.5,0.7-1.5
			l-2.1-2.8l2.4-1.8l-3.7-4.3c-0.7,0.3-1.5,0.6-2.2,1.1c-1.1,0.7-2.3,1.7-3.7,2.8c-1.8,1.5-3.8,3.3-5.9,4.9
			c-3.2,2.5-6.6,4.6-9.5,4.6c-0.3,0-0.5,0-0.8-0.1c0,0,4.1,10.2,12.2,11C12.7,44.1,13.5,40.3,16.8,36.3z"/>
		<polygon class="st0" points="33,28.7 34.8,28.7 30.6,33.7 39.2,33.7 47.7,33.7 43.5,28.7 45.3,28.7 42.2,25 41.5,24.1 42.8,24.1 
			41,21.9 39.2,19.7 37.3,21.9 35.5,24.1 36.9,24.1 36.1,25 		"/>
	</g>
</g>
</svg>
